<svg width="35" height="35" viewBox="0 0 35 35" fill="none" xmlns="http://www.w3.org/2000/svg">
<path d="M17.4978 0.364258C7.83563 0.364258 0 8.23051 0 17.9343C0 25.6955 5.01375 32.2799 11.97 34.6052C12.845 34.7671 13.1644 34.2246 13.1644 33.7586C13.1644 33.3408 13.1491 32.2361 13.1403 30.7705C8.27312 31.8314 7.245 28.4146 7.245 28.4146C6.45094 26.3846 5.3025 25.8443 5.3025 25.8443C3.71219 24.7549 5.42062 24.7768 5.42062 24.7768C7.17719 24.9014 8.10031 26.588 8.10031 26.588C9.66219 29.2721 12.1975 28.4977 13.195 28.0471C13.3525 26.9118 13.8053 26.1374 14.3062 25.6977C10.4212 25.2536 6.335 23.7464 6.335 17.0155C6.335 15.0971 7.0175 13.5286 8.1375 12.2993C7.95594 11.8552 7.35656 10.068 8.30813 7.65082C8.30813 7.65082 9.77813 7.17832 13.1206 9.45113C14.5163 9.06176 16.0125 8.86707 17.5022 8.86051C18.9875 8.86926 20.4859 9.06176 21.8837 9.45332C25.2241 7.18051 26.6919 7.65301 26.6919 7.65301C27.6456 10.0724 27.0462 11.8574 26.8669 12.3014C27.9891 13.5308 28.665 15.0993 28.665 17.0177C28.665 23.7661 24.5744 25.2514 20.6762 25.6868C21.3041 26.2292 21.8641 27.3011 21.8641 28.9396C21.8641 31.2889 21.8422 33.1833 21.8422 33.7586C21.8422 34.2289 22.1572 34.7758 23.0453 34.603C29.9906 32.2755 35 25.6933 35 17.9343C35 8.23051 27.1644 0.364258 17.4978 0.364258Z" fill="#FB365A"/>
</svg>
